<mxfile host="app.diagrams.net" modified="2024-03-17T21:16:51.205Z" agent="Mozilla/5.0 (Windows NT 10.0; Win64; x64) AppleWebKit/537.36 (KHTML, like Gecko) Chrome/121.0.0.0 Safari/537.36 OPR/107.0.0.0" etag="NRGDvEgsMCMu6jCvESs9" version="24.0.7" type="github">
  <diagram name="Page-1" id="5f0bae14-7c28-e335-631c-24af17079c00">
    <mxGraphModel dx="1193" dy="633" grid="1" gridSize="10" guides="1" tooltips="1" connect="1" arrows="1" fold="1" page="1" pageScale="1" pageWidth="1100" pageHeight="850" background="none" math="0" shadow="0">
      <root>
        <mxCell id="0" />
        <mxCell id="1" parent="0" />
        <mxCell id="2v8QNDamUI17Ltb39LU0-1" value="" style="shape=cylinder3;whiteSpace=wrap;html=1;boundedLbl=1;backgroundOutline=1;size=15;" vertex="1" parent="1">
          <mxGeometry x="530" y="480" width="60" height="80" as="geometry" />
        </mxCell>
        <mxCell id="2v8QNDamUI17Ltb39LU0-2" value="" style="aspect=fixed;sketch=0;html=1;dashed=0;whitespace=wrap;fillColor=#2875E2;strokeColor=#ffffff;points=[[0.005,0.63,0],[0.1,0.2,0],[0.9,0.2,0],[0.5,0,0],[0.995,0.63,0],[0.72,0.99,0],[0.5,1,0],[0.28,0.99,0]];shape=mxgraph.kubernetes.icon2;prIcon=api" vertex="1" parent="1">
          <mxGeometry x="350" y="360" width="50" height="48" as="geometry" />
        </mxCell>
        <mxCell id="2v8QNDamUI17Ltb39LU0-10" style="edgeStyle=orthogonalEdgeStyle;rounded=0;orthogonalLoop=1;jettySize=auto;html=1;entryX=1;entryY=0.5;entryDx=0;entryDy=0;entryPerimeter=0;" edge="1" parent="1" source="2v8QNDamUI17Ltb39LU0-3" target="2v8QNDamUI17Ltb39LU0-1">
          <mxGeometry relative="1" as="geometry">
            <mxPoint x="685" y="530" as="targetPoint" />
            <Array as="points">
              <mxPoint x="680" y="520" />
            </Array>
          </mxGeometry>
        </mxCell>
        <mxCell id="2v8QNDamUI17Ltb39LU0-3" value="" style="aspect=fixed;sketch=0;html=1;dashed=0;whitespace=wrap;fillColor=#2875E2;strokeColor=#ffffff;points=[[0.005,0.63,0],[0.1,0.2,0],[0.9,0.2,0],[0.5,0,0],[0.995,0.63,0],[0.72,0.99,0],[0.5,1,0],[0.28,0.99,0]];shape=mxgraph.kubernetes.icon2;prIcon=api" vertex="1" parent="1">
          <mxGeometry x="650" y="360" width="50" height="48" as="geometry" />
        </mxCell>
        <mxCell id="2v8QNDamUI17Ltb39LU0-13" value="" style="edgeStyle=orthogonalEdgeStyle;rounded=0;orthogonalLoop=1;jettySize=auto;html=1;" edge="1" parent="1" source="2v8QNDamUI17Ltb39LU0-4" target="2v8QNDamUI17Ltb39LU0-6">
          <mxGeometry relative="1" as="geometry" />
        </mxCell>
        <mxCell id="2v8QNDamUI17Ltb39LU0-4" value="Student" style="shape=umlActor;verticalLabelPosition=bottom;verticalAlign=top;html=1;outlineConnect=0;" vertex="1" parent="1">
          <mxGeometry x="220" y="180" width="30" height="60" as="geometry" />
        </mxCell>
        <mxCell id="2v8QNDamUI17Ltb39LU0-15" value="" style="edgeStyle=orthogonalEdgeStyle;rounded=0;orthogonalLoop=1;jettySize=auto;html=1;" edge="1" parent="1" source="2v8QNDamUI17Ltb39LU0-5" target="2v8QNDamUI17Ltb39LU0-7">
          <mxGeometry relative="1" as="geometry" />
        </mxCell>
        <mxCell id="2v8QNDamUI17Ltb39LU0-5" value="Admin" style="shape=umlActor;verticalLabelPosition=bottom;verticalAlign=top;html=1;outlineConnect=0;" vertex="1" parent="1">
          <mxGeometry x="810" y="180" width="30" height="60" as="geometry" />
        </mxCell>
        <mxCell id="2v8QNDamUI17Ltb39LU0-8" value="" style="edgeStyle=orthogonalEdgeStyle;rounded=0;orthogonalLoop=1;jettySize=auto;html=1;" edge="1" parent="1" source="2v8QNDamUI17Ltb39LU0-6" target="2v8QNDamUI17Ltb39LU0-2">
          <mxGeometry relative="1" as="geometry" />
        </mxCell>
        <mxCell id="2v8QNDamUI17Ltb39LU0-6" value="" style="verticalLabelPosition=bottom;verticalAlign=top;html=1;shadow=0;dashed=0;strokeWidth=1;shape=mxgraph.android.phone2;strokeColor=#c0c0c0;" vertex="1" parent="1">
          <mxGeometry x="340" y="137.5" width="70" height="145" as="geometry" />
        </mxCell>
        <mxCell id="2v8QNDamUI17Ltb39LU0-18" value="" style="edgeStyle=orthogonalEdgeStyle;rounded=0;orthogonalLoop=1;jettySize=auto;html=1;" edge="1" parent="1" source="2v8QNDamUI17Ltb39LU0-7" target="2v8QNDamUI17Ltb39LU0-3">
          <mxGeometry relative="1" as="geometry" />
        </mxCell>
        <mxCell id="2v8QNDamUI17Ltb39LU0-7" value="" style="verticalLabelPosition=bottom;html=1;verticalAlign=top;align=center;strokeColor=none;fillColor=#00BEF2;shape=mxgraph.azure.website_generic;pointerEvents=1;" vertex="1" parent="1">
          <mxGeometry x="610" y="150" width="130" height="120" as="geometry" />
        </mxCell>
        <mxCell id="2v8QNDamUI17Ltb39LU0-9" style="edgeStyle=orthogonalEdgeStyle;rounded=0;orthogonalLoop=1;jettySize=auto;html=1;entryX=0;entryY=0.5;entryDx=0;entryDy=0;entryPerimeter=0;" edge="1" parent="1" source="2v8QNDamUI17Ltb39LU0-2" target="2v8QNDamUI17Ltb39LU0-1">
          <mxGeometry relative="1" as="geometry">
            <Array as="points">
              <mxPoint x="370" y="520" />
            </Array>
          </mxGeometry>
        </mxCell>
      </root>
    </mxGraphModel>
  </diagram>
</mxfile>
